{
    "asset" : {
        "generator" : "Khronos glTF Blender I/O v1.7.17",
        "version" : "2.0"
    },
    "scene" : 0,
    "scenes" : [
        {
            "name" : "Scene",
            "nodes" : [
                4,
                5,
                6
            ]
        }
    ],
    "nodes" : [
        {
            "mesh" : 0,
            "name" : "tire",
            "rotation" : [
                -0.0043439413420856,
                -0.0014024515403434634,
                -0.7071114182472229,
                0.707087516784668
            ],
            "scale" : [
                0.36666062474250793,
                0.2142857313156128,
                0.20834395289421082
            ],
            "translation" : [
                0.8251059055328369,
                -0.8963168263435364,
                -1.007960319519043
            ]
        },
        {
            "mesh" : 1,
            "name" : "tire.001",
            "rotation" : [
                -0.0043439413420856,
                -0.0014024515403434634,
                -0.7071114182472229,
                0.707087516784668
            ],
            "scale" : [
                0.36666062474250793,
                0.2142857313156128,
                0.20834395289421082
            ],
            "translation" : [
                -0.8245416879653931,
                -0.8963168263435364,
                -1.007960319519043
            ]
        },
        {
            "mesh" : 2,
            "name" : "tire.002",
            "rotation" : [
                -0.0043439413420856,
                -0.0014024515403434634,
                -0.7071114182472229,
                0.707087516784668
            ],
            "scale" : [
                0.36666062474250793,
                0.2142857313156128,
                0.20834395289421082
            ],
            "translation" : [
                -0.8245416879653931,
                -0.8809391856193542,
                0.24355459213256836
            ]
        },
        {
            "mesh" : 3,
            "name" : "tire.003",
            "rotation" : [
                -0.0043439413420856,
                -0.0014024515403434634,
                -0.7071114182472229,
                0.707087516784668
            ],
            "scale" : [
                0.36666062474250793,
                0.2142857313156128,
                0.20834395289421082
            ],
            "translation" : [
                0.8251059055328369,
                -0.8809390664100647,
                0.24355459213256836
            ]
        },
        {
            "children" : [
                0,
                1,
                2,
                3
            ],
            "mesh" : 4,
            "name" : "car",
            "rotation" : [
                0.003490651259198785,
                0,
                0,
                0.9999939203262329
            ],
            "scale" : [
                1.399999976158142,
                1.5,
                2.6399998664855957
            ],
            "translation" : [
                2.9876387119293213,
                2.4277656078338623,
                17.723045349121094
            ]
        },
        {
            "mesh" : 5,
            "name" : "ground",
            "scale" : [
                20,
                20,
                20
            ]
        },
        {
            "mesh" : 6,
            "name" : "road",
            "scale" : [
                7.400000095367432,
                0.5,
                20
            ]
        }
    ],
    "animations" : [
        {
            "channels" : [
                {
                    "sampler" : 0,
                    "target" : {
                        "node" : 4,
                        "path" : "translation"
                    }
                }
            ],
            "name" : "carAction",
            "samplers" : [
                {
                    "input" : 25,
                    "interpolation" : "LINEAR",
                    "output" : 26
                }
            ]
        }
    ],
    "materials" : [
        {
            "doubleSided" : true,
            "name" : "Material",
            "pbrMetallicRoughness" : {
                "baseColorTexture" : {
                    "index" : 0
                },
                "metallicFactor" : 0
            }
        }
    ],
    "meshes" : [
        {
            "name" : "Cylinder.001",
            "primitives" : [
                {
                    "attributes" : {
                        "POSITION" : 0,
                        "NORMAL" : 1,
                        "TEXCOORD_0" : 2
                    },
                    "indices" : 3,
                    "material" : 0
                }
            ]
        },
        {
            "name" : "Cylinder.002",
            "primitives" : [
                {
                    "attributes" : {
                        "POSITION" : 4,
                        "NORMAL" : 5,
                        "TEXCOORD_0" : 6
                    },
                    "indices" : 3,
                    "material" : 0
                }
            ]
        },
        {
            "name" : "Cylinder.004",
            "primitives" : [
                {
                    "attributes" : {
                        "POSITION" : 7,
                        "NORMAL" : 8,
                        "TEXCOORD_0" : 9
                    },
                    "indices" : 3,
                    "material" : 0
                }
            ]
        },
        {
            "name" : "Cylinder.003",
            "primitives" : [
                {
                    "attributes" : {
                        "POSITION" : 10,
                        "NORMAL" : 11,
                        "TEXCOORD_0" : 12
                    },
                    "indices" : 3,
                    "material" : 0
                }
            ]
        },
        {
            "name" : "Cube",
            "primitives" : [
                {
                    "attributes" : {
                        "POSITION" : 13,
                        "NORMAL" : 14,
                        "TEXCOORD_0" : 15
                    },
                    "indices" : 16,
                    "material" : 0
                }
            ]
        },
        {
            "name" : "Plane",
            "primitives" : [
                {
                    "attributes" : {
                        "POSITION" : 17,
                        "NORMAL" : 18,
                        "TEXCOORD_0" : 19
                    },
                    "indices" : 20,
                    "material" : 0
                }
            ]
        },
        {
            "name" : "Cube.001",
            "primitives" : [
                {
                    "attributes" : {
                        "POSITION" : 21,
                        "NORMAL" : 22,
                        "TEXCOORD_0" : 23
                    },
                    "indices" : 24,
                    "material" : 0
                }
            ]
        }
    ],
    "textures" : [
        {
            "sampler" : 0,
            "source" : 0
        }
    ],
    "images" : [
        {
            "mimeType" : "image/png",
            "name" : "super-colorful-3-1x",
            "uri" : "super-colorful-3-1x.png"
        }
    ],
    "accessors" : [
        {
            "bufferView" : 0,
            "componentType" : 5126,
            "count" : 192,
            "max" : [
                1,
                1,
                1
            ],
            "min" : [
                -1,
                -1,
                -1
            ],
            "type" : "VEC3"
        },
        {
            "bufferView" : 1,
            "componentType" : 5126,
            "count" : 192,
            "type" : "VEC3"
        },
        {
            "bufferView" : 2,
            "componentType" : 5126,
            "count" : 192,
            "type" : "VEC2"
        },
        {
            "bufferView" : 3,
            "componentType" : 5123,
            "count" : 372,
            "type" : "SCALAR"
        },
        {
            "bufferView" : 4,
            "componentType" : 5126,
            "count" : 192,
            "max" : [
                1,
                1,
                1
            ],
            "min" : [
                -1,
                -1,
                -1
            ],
            "type" : "VEC3"
        },
        {
            "bufferView" : 5,
            "componentType" : 5126,
            "count" : 192,
            "type" : "VEC3"
        },
        {
            "bufferView" : 6,
            "componentType" : 5126,
            "count" : 192,
            "type" : "VEC2"
        },
        {
            "bufferView" : 7,
            "componentType" : 5126,
            "count" : 192,
            "max" : [
                1,
                1,
                1
            ],
            "min" : [
                -1,
                -1,
                -1
            ],
            "type" : "VEC3"
        },
        {
            "bufferView" : 8,
            "componentType" : 5126,
            "count" : 192,
            "type" : "VEC3"
        },
        {
            "bufferView" : 9,
            "componentType" : 5126,
            "count" : 192,
            "type" : "VEC2"
        },
        {
            "bufferView" : 10,
            "componentType" : 5126,
            "count" : 192,
            "max" : [
                1,
                1,
                1
            ],
            "min" : [
                -1,
                -1,
                -1
            ],
            "type" : "VEC3"
        },
        {
            "bufferView" : 11,
            "componentType" : 5126,
            "count" : 192,
            "type" : "VEC3"
        },
        {
            "bufferView" : 12,
            "componentType" : 5126,
            "count" : 192,
            "type" : "VEC2"
        },
        {
            "bufferView" : 13,
            "componentType" : 5126,
            "count" : 286,
            "max" : [
                0.9999999403953552,
                1.000000238418579,
                0.6240244507789612
            ],
            "min" : [
                -1,
                -0.8515999913215637,
                -1.4321753978729248
            ],
            "type" : "VEC3"
        },
        {
            "bufferView" : 14,
            "componentType" : 5126,
            "count" : 286,
            "type" : "VEC3"
        },
        {
            "bufferView" : 15,
            "componentType" : 5126,
            "count" : 286,
            "type" : "VEC2"
        },
        {
            "bufferView" : 16,
            "componentType" : 5123,
            "count" : 540,
            "type" : "SCALAR"
        },
        {
            "bufferView" : 17,
            "componentType" : 5126,
            "count" : 357,
            "max" : [
                1.0000001192092896,
                0.12810996174812317,
                1.0000001192092896
            ],
            "min" : [
                -1,
                0,
                -1
            ],
            "type" : "VEC3"
        },
        {
            "bufferView" : 18,
            "componentType" : 5126,
            "count" : 357,
            "type" : "VEC3"
        },
        {
            "bufferView" : 19,
            "componentType" : 5126,
            "count" : 357,
            "type" : "VEC2"
        },
        {
            "bufferView" : 20,
            "componentType" : 5123,
            "count" : 726,
            "type" : "SCALAR"
        },
        {
            "bufferView" : 21,
            "componentType" : 5126,
            "count" : 78,
            "max" : [
                1,
                2.8406620025634766,
                1
            ],
            "min" : [
                -1,
                -1,
                -1
            ],
            "type" : "VEC3"
        },
        {
            "bufferView" : 22,
            "componentType" : 5126,
            "count" : 78,
            "type" : "VEC3"
        },
        {
            "bufferView" : 23,
            "componentType" : 5126,
            "count" : 78,
            "type" : "VEC2"
        },
        {
            "bufferView" : 24,
            "componentType" : 5123,
            "count" : 132,
            "type" : "SCALAR"
        },
        {
            "bufferView" : 25,
            "componentType" : 5126,
            "count" : 250,
            "max" : [
                10.416666666666666
            ],
            "min" : [
                0.041666666666666664
            ],
            "type" : "SCALAR"
        },
        {
            "bufferView" : 26,
            "componentType" : 5126,
            "count" : 250,
            "type" : "VEC3"
        }
    ],
    "bufferViews" : [
        {
            "buffer" : 0,
            "byteLength" : 2304,
            "byteOffset" : 0
        },
        {
            "buffer" : 0,
            "byteLength" : 2304,
            "byteOffset" : 2304
        },
        {
            "buffer" : 0,
            "byteLength" : 1536,
            "byteOffset" : 4608
        },
        {
            "buffer" : 0,
            "byteLength" : 744,
            "byteOffset" : 6144
        },
        {
            "buffer" : 0,
            "byteLength" : 2304,
            "byteOffset" : 6888
        },
        {
            "buffer" : 0,
            "byteLength" : 2304,
            "byteOffset" : 9192
        },
        {
            "buffer" : 0,
            "byteLength" : 1536,
            "byteOffset" : 11496
        },
        {
            "buffer" : 0,
            "byteLength" : 2304,
            "byteOffset" : 13032
        },
        {
            "buffer" : 0,
            "byteLength" : 2304,
            "byteOffset" : 15336
        },
        {
            "buffer" : 0,
            "byteLength" : 1536,
            "byteOffset" : 17640
        },
        {
            "buffer" : 0,
            "byteLength" : 2304,
            "byteOffset" : 19176
        },
        {
            "buffer" : 0,
            "byteLength" : 2304,
            "byteOffset" : 21480
        },
        {
            "buffer" : 0,
            "byteLength" : 1536,
            "byteOffset" : 23784
        },
        {
            "buffer" : 0,
            "byteLength" : 3432,
            "byteOffset" : 25320
        },
        {
            "buffer" : 0,
            "byteLength" : 3432,
            "byteOffset" : 28752
        },
        {
            "buffer" : 0,
            "byteLength" : 2288,
            "byteOffset" : 32184
        },
        {
            "buffer" : 0,
            "byteLength" : 1080,
            "byteOffset" : 34472
        },
        {
            "buffer" : 0,
            "byteLength" : 4284,
            "byteOffset" : 35552
        },
        {
            "buffer" : 0,
            "byteLength" : 4284,
            "byteOffset" : 39836
        },
        {
            "buffer" : 0,
            "byteLength" : 2856,
            "byteOffset" : 44120
        },
        {
            "buffer" : 0,
            "byteLength" : 1452,
            "byteOffset" : 46976
        },
        {
            "buffer" : 0,
            "byteLength" : 936,
            "byteOffset" : 48428
        },
        {
            "buffer" : 0,
            "byteLength" : 936,
            "byteOffset" : 49364
        },
        {
            "buffer" : 0,
            "byteLength" : 624,
            "byteOffset" : 50300
        },
        {
            "buffer" : 0,
            "byteLength" : 264,
            "byteOffset" : 50924
        },
        {
            "buffer" : 0,
            "byteLength" : 1000,
            "byteOffset" : 51188
        },
        {
            "buffer" : 0,
            "byteLength" : 3000,
            "byteOffset" : 52188
        }
    ],
    "samplers" : [
        {
            "magFilter" : 9728,
            "minFilter" : 9984
        }
    ],
    "buffers" : [
        {
            "byteLength" : 55188,
            "uri" : "car-scene.bin"
        }
    ]
}
